<svg xmlns="http://www.w3.org/2000/svg" viewBox="0 0 760 340" width="760" height="340">
<rect width="760" height="340" fill="#FFFFFF"/>
<path d="M20,230 C120,222 220,205 330,200 S420,198 470,200" fill="none" stroke="#C8CDC6" stroke-width="9" stroke-linecap="round"/>
<text x="30" y="256" font-family="SourceSansPro, Source Sans Pro, Noto Serif, Noto Sans, DejaVu Sans, sans-serif" font-size="11" fill="#6B7069" text-anchor="start" font-weight="normal">class II road</text>
<path d="M330,200 C380,160 440,110 520,80 S680,40 745,35" fill="none" stroke="#C8CDC6" stroke-width="5" stroke-linecap="round"/>
<text x="600" y="32" font-family="SourceSansPro, Source Sans Pro, Noto Serif, Noto Sans, DejaVu Sans, sans-serif" font-size="11" fill="#6B7069" text-anchor="start" font-weight="normal">class III road</text>
<path d="M330,200 C350,240 360,290 365,330" fill="none" stroke="#C8CDC6" stroke-width="4" stroke-linecap="round"/>
<path d="M110,224 C190,215 260,203 330,200" fill="none" stroke="#0096DC" stroke-width="9" stroke-linecap="round"/>
<path d="M330,200 C380,160 430,118 500,88" fill="none" stroke="#0096DC" stroke-width="9" stroke-linecap="round"/>
<circle cx="330" cy="200" r="5" fill="#09417A"/>
<circle cx="220" cy="190" r="11" fill="#09417A"/><text x="220" y="194" font-family="SourceSansPro, Source Sans Pro, Noto Serif, Noto Sans, DejaVu Sans, sans-serif" font-size="12" fill="#FFFFFF" text-anchor="middle" font-weight="bold">1</text>
<circle cx="440" cy="140" r="11" fill="#09417A"/><text x="440" y="144" font-family="SourceSansPro, Source Sans Pro, Noto Serif, Noto Sans, DejaVu Sans, sans-serif" font-size="12" fill="#FFFFFF" text-anchor="middle" font-weight="bold">2</text>
<line x1="30" y1="30" x2="62" y2="30" stroke="#C8CDC6" stroke-width="6" stroke-linecap="round"/>
<text x="70" y="34" font-family="SourceSansPro, Source Sans Pro, Noto Serif, Noto Sans, DejaVu Sans, sans-serif" font-size="11" fill="#6B7069" text-anchor="start" font-weight="normal">road network</text>
<line x1="30" y1="52" x2="62" y2="52" stroke="#0096DC" stroke-width="6" stroke-linecap="round"/>
<text x="70" y="56" font-family="SourceSansPro, Source Sans Pro, Noto Serif, Noto Sans, DejaVu Sans, sans-serif" font-size="11" fill="#333333" text-anchor="start" font-weight="normal">itinerary parts (connected, each on one road)</text>
<rect x="420" y="250" width="320" height="86" rx="4" fill="#F4F8FB" stroke="#C8CDC6"/>
<text x="430" y="268" font-family="SourceSansPro, Source Sans Pro, Noto Serif, Noto Sans, DejaVu Sans, sans-serif" font-size="12" fill="#09417A" text-anchor="start" font-weight="bold">loc:PredefinedItinerary</text>
<text x="430" y="286" font-family="SourceSansPro, Source Sans Pro, Noto Serif, Noto Sans, DejaVu Sans, sans-serif" font-size="11" fill="#333333" text-anchor="start" font-weight="normal">itinerary: own id and version, no name</text>
<text x="440" y="304" font-family="SourceSansPro, Source Sans Pro, Noto Serif, Noto Sans, DejaVu Sans, sans-serif" font-size="11" fill="#333333" text-anchor="start" font-weight="normal">1  predefinedLocation – part on the class II road</text>
<text x="440" y="322" font-family="SourceSansPro, Source Sans Pro, Noto Serif, Noto Sans, DejaVu Sans, sans-serif" font-size="11" fill="#333333" text-anchor="start" font-weight="normal">2  predefinedLocation – part on the class III road</text>
</svg>
